<?xml version="1.0" ?><svg id="Layer_1" style="enable-background:new 0 0 512 512;" version="1.1" viewBox="0 0 512 512" xml:space="preserve" xmlns="http://www.w3.org/2000/svg" xmlns:xlink="http://www.w3.org/1999/xlink"><g><g><path d="M332.9,56.6v-8.1c0-23.5-19-42.5-42.5-42.5h-68.7c-23.5,0-42.5,19-42.5,42.5v8.1H332.9z" id="XMLID_5_"/><rect height="273.1" id="XMLID_4_" width="153.7" x="179.1" y="74.7"/></g><g><path d="M256,506c-2.6,0-5-1.5-6.2-3.9L180,350.6c-1-2.1-0.8-4.5,0.4-6.5c1.2-1.9,3.4-3.1,5.7-3.1h139.7c2.3,0,4.5,1.2,5.7,3.1    c1.2,1.9,1.4,4.4,0.4,6.5l-69.8,151.4C261,504.5,258.6,506,256,506z M196.7,354.6L256,483l59.3-128.5H196.7z"/></g><polygon id="XMLID_1_" points="226.3,434.9 286.1,434.9 255,497  "/></g></svg>